<svg width="50" height="40" viewBox="0 0 50 40" fill="none" xmlns="http://www.w3.org/2000/svg">
  <path d="M4.53876 15.4848L2.65121 17.3723L0.763672 15.4848L2.65121 13.5972L4.53876 15.4848ZM49.9252 36.8431C49.9252 37.5512 49.6439 38.2302 49.1432 38.7309C48.6425 39.2316 47.9635 39.5129 47.2554 39.5129C46.5473 39.5129 45.8682 39.2316 45.3676 38.7309C44.8669 38.2302 44.5856 37.5512 44.5856 36.8431H49.9252ZM16.0002 30.7213L2.65121 17.3723L6.4263 13.5972L19.7752 26.9462L16.0002 30.7213ZM2.65121 13.5972L16.0002 0.248291L19.7752 4.02337L6.4263 17.3723L2.65121 13.5972ZM4.53876 12.815H31.2367V18.1546H4.53876V12.815ZM49.9252 31.5035V36.8431H44.5856V31.5035H49.9252ZM31.2367 12.815C36.1932 12.815 40.9467 14.784 44.4514 18.2887C47.9562 21.7935 49.9252 26.547 49.9252 31.5035H44.5856C44.5856 27.9632 43.1792 24.5678 40.6758 22.0644C38.1724 19.561 34.777 18.1546 31.2367 18.1546V12.815Z" fill="#7F7F7F"/>
</svg>
