<svg width="48" height="48" viewBox="0 0 48 48" fill="none" xmlns="http://www.w3.org/2000/svg">
  <path d="M2 23.6666L24 1.66663L46 23.6666M7.5 18.4562V42.9166C7.5 43.646 7.78973 44.3454 8.30546 44.8612C8.82118 45.3769 9.52065 45.6666 10.25 45.6666H18.5V37.4166C18.5 36.6873 18.7897 35.9878 19.3055 35.4721C19.8212 34.9564 20.5207 34.6666 21.25 34.6666H26.75C27.4793 34.6666 28.1788 34.9564 28.6945 35.4721C29.2103 35.9878 29.5 36.6873 29.5 37.4166V45.6666H37.75C38.4793 45.6666 39.1788 45.3769 39.6945 44.8612C40.2103 44.3454 40.5 43.646 40.5 42.9166V18.4562" stroke="#7F7F7F" stroke-width="2.87805" stroke-linecap="round" stroke-linejoin="round"/>
  <path d="M17.676 37.9997V44.9999H9.10981C8.68106 44.9999 8.3335 44.6523 8.3335 44.2236V17.559L24.0458 0.999878L39.3335 17.559V44.2236C39.3335 44.6523 38.9859 44.9999 38.5572 44.9999H30.4157V37.9997C30.4157 35.856 28.6778 34.1182 26.5341 34.1182H21.5575C19.4138 34.1182 17.676 35.856 17.676 37.9997Z" fill="#7F7F7F"/>
</svg>
