<svg width="48" height="48" viewBox="0 0 48 48" fill="none" xmlns="http://www.w3.org/2000/svg">
  <path d="M2.00049 23.9998L24.0002 2.00012L45.9998 23.9998M7.50041 19.8749V43.2495C7.50041 43.9788 7.79013 44.6783 8.30585 45.194C8.82157 45.7097 9.52103 45.9995 10.2504 45.9995H18.5002V37.7496C18.5002 37.0203 18.79 36.3208 19.3057 35.8051C19.8214 35.2894 20.5209 34.9996 21.2502 34.9996H26.7501C27.4795 34.9996 28.1789 35.2894 28.6946 35.8051C29.2104 36.3208 29.5001 37.0203 29.5001 37.7496V45.9995H37.75C38.4793 45.9995 39.1788 45.7097 39.6945 45.194C40.2102 44.6783 40.4999 43.9788 40.4999 43.2495V19.8749" stroke="#7F7F7F" stroke-width="3.21946" stroke-linecap="round" stroke-linejoin="round"/>
</svg>
