<svg xmlns="http://www.w3.org/2000/svg" xmlns:xlink="http://www.w3.org/1999/xlink" width="68" height="68" viewBox="0 0 68 68"><defs><clipPath id="a"><rect width="33.866" height="33.866" fill="#fff"/></clipPath><clipPath id="c"><rect width="68" height="68"/></clipPath></defs><g id="b" clip-path="url(#c)"><g transform="translate(3.706 2.526)"><circle cx="30" cy="30" r="30" transform="translate(0.294 0.474)" fill="#ff5ad9"/><path d="M30,2A28.008,28.008,0,0,0,19.1,55.8,28.008,28.008,0,0,0,40.9,4.2,27.823,27.823,0,0,0,30,2m0-2A30,30,0,1,1,0,30,30,30,0,0,1,30,0Z" transform="translate(0.294 0.474)" fill="#fff"/><g transform="translate(12.376 13.422)"><g transform="translate(0 0)" clip-path="url(#a)"><path d="M32.912,28.3l-2.6-2.6A16.539,16.539,0,1,0,25.7,30.312l2.6,2.6A3.262,3.262,0,1,0,32.912,28.3M7.775,25.305a12.395,12.395,0,1,1,17.529,0,12.41,12.41,0,0,1-17.529,0m18.4-8.765a2.486,2.486,0,0,1-2.486,2.487H19.027V23.69a2.487,2.487,0,1,1-4.974,0V19.027H9.391a2.486,2.486,0,1,1,0-4.973h4.663V9.391a2.487,2.487,0,1,1,4.974,0v4.663H23.69a2.486,2.486,0,0,1,2.486,2.486" transform="translate(0 0)" fill="#fff"/></g></g></g></g></svg>